<head><script src="https://d3js.org/d3.v3.min.js"></script></head>

<svg width="600" height="250">
<g transform="translate(30,20)">
    <rect class="bar" x="0" width="27" y="118" height="89" fill="rgb(5, 134, 230)"></rect>
    <rect class="bar" x="28" width="27" y="170" height="37" fill="rgb(5, 134, 100)"></rect>
    <rect class="bar" x="56" width="27" y="158" height="49" fill="rgb(5, 134, 130)"></rect>
    <rect class="bar" x="84" width="27" y="134" height="73" fill="rgb(5, 134, 190)"></rect>
    <rect class="bar" x="112" width="27" y="126" height="81" fill="rgb(5, 134, 210)"></rect>
    <rect class="bar" x="140" width="27" y="110" height="97" fill="rgb(5, 134, 250)"></rect>
    <rect class="bar" x="168" width="27" y="122" height="85" fill="rgb(5, 134, 220)"></rect>
    <rect class="bar" x="196" width="27" y="138" height="69" fill="rgb(5, 134, 180)"></rect>
    <rect class="bar" x="224" width="27" y="150" height="57" fill="rgb(5, 134, 150)"></rect>
    <rect class="bar" x="252" width="27" y="158" height="49" fill="rgb(5, 134, 130)"></rect>
    <rect class="bar" x="280" width="27" y="166" height="41" fill="rgb(5, 134, 110)"></rect>
    <rect class="bar" x="308" width="27" y="162" height="45" fill="rgb(5, 134, 120)"></rect>
    <rect class="bar" x="336" width="27" y="150" height="57" fill="rgb(5, 134, 150)"></rect>
    <rect class="bar" x="364" width="27" y="130" height="77" fill="rgb(5, 134, 200)"></rect>
    <rect class="bar" x="392" width="27" y="138" height="69" fill="rgb(5, 134, 180)"></rect>
    <rect class="bar" x="420" width="27" y="142" height="65" fill="rgb(5, 134, 170)"></rect>
    <rect class="bar" x="448" width="27" y="146" height="61" fill="rgb(5, 134, 160)"></rect>
    <rect class="bar" x="476" width="27" y="138" height="69" fill="rgb(5, 134, 180)"></rect>
    <rect class="bar" x="504" width="27" y="118" height="89" fill="rgb(5, 134, 230)"></rect>
    <rect class="bar" x="532" width="27" y="110" height="97" fill="rgb(5, 134, 250)"></rect>
    <text x="-11.5" y="133" font-family="sans-serif" font-size="11px" fill="white">23</text>
    <text x="16.5" y="185" font-family="sans-serif" font-size="11px" fill="white">10</text>
    <text x="44.5" y="173" font-family="sans-serif" font-size="11px" fill="white">13</text>
    <text x="72.5" y="149" font-family="sans-serif" font-size="11px" fill="white">19</text>
    <text x="100.5" y="141" font-family="sans-serif" font-size="11px" fill="white">21</text>
    <text x="128.5" y="125" font-family="sans-serif" font-size="11px" fill="white">25</text>
    <text x="156.5" y="137" font-family="sans-serif" font-size="11px" fill="white">22</text>
    <text x="184.5" y="153" font-family="sans-serif" font-size="11px" fill="white">18</text>
    <text x="212.5" y="165" font-family="sans-serif" font-size="11px" fill="white">15</text>
    <text x="240.5" y="173" font-family="sans-serif" font-size="11px" fill="white">13</text>
    <text x="268.5" y="181" font-family="sans-serif" font-size="11px" fill="white">11</text>
    <text x="296.5" y="177" font-family="sans-serif" font-size="11px" fill="white">12</text>
    <text x="324.5" y="165" font-family="sans-serif" font-size="11px" fill="white">15</text>
    <text x="352.5" y="145" font-family="sans-serif" font-size="11px" fill="white">20</text>
    <text x="380.5" y="153" font-family="sans-serif" font-size="11px" fill="white">18</text>
    <text x="408.5" y="157" font-family="sans-serif" font-size="11px" fill="white">17</text>
    <text x="436.5" y="161" font-family="sans-serif" font-size="11px" fill="white">16</text>
    <text x="464.5" y="153" font-family="sans-serif" font-size="11px" fill="white">18</text>
    <text x="492.5" y="133" font-family="sans-serif" font-size="11px" fill="white">23</text>
    <text x="520.5" y="125" font-family="sans-serif" font-size="11px" fill="white">25</text>
    <g class="x axis" transform="translate(0,210)">
        <g class="tick" style="opacity: 1;" transform="translate(23,0)">
            <line y2="6" x2="0"></line>
            <text dy=".71em" style="text-anchor: middle;" y="9" x="0">A</text>
        </g>
        <g class="tick" style="opacity: 1;" transform="translate(50,0)">
            <line y2="6" x2="0"></line>
            <text dy=".71em" style="text-anchor: middle;" y="9" x="0">B</text>
        </g>
        <g class="tick" style="opacity: 1;" transform="translate(77,0)">
            <line y2="6" x2="0"></line>
            <text dy=".71em" style="text-anchor: middle;" y="9" x="0">C</text>
        </g>
        <g class="tick" style="opacity: 1;" transform="translate(104,0)">
            <line y2="6" x2="0"></line>
            <text dy=".71em" style="text-anchor: middle;" y="9" x="0">D</text>
        </g>
        <g class="tick" style="opacity: 1;" transform="translate(131,0)">
            <line y2="6" x2="0"></line>
            <text dy=".71em" style="text-anchor: middle;" y="9" x="0">E</text>
        </g>
        <g class="tick" style="opacity: 1;" transform="translate(158,0)">
            <line y2="6" x2="0"></line>
            <text dy=".71em" style="text-anchor: middle;" y="9" x="0">F</text>
        </g>
        <g class="tick" style="opacity: 1;" transform="translate(185,0)">
            <line y2="6" x2="0"></line>
            <text dy=".71em" style="text-anchor: middle;" y="9" x="0">G</text>
        </g>
        <g class="tick" style="opacity: 1;" transform="translate(212,0)">
            <line y2="6" x2="0"></line>
            <text dy=".71em" style="text-anchor: middle;" y="9" x="0">H</text>
        </g>
        <g class="tick" style="opacity: 1;" transform="translate(239,0)">
            <line y2="6" x2="0"></line>
            <text dy=".71em" style="text-anchor: middle;" y="9" x="0">J</text>
        </g>
        <g class="tick" style="opacity: 1;" transform="translate(266,0)">
            <line y2="6" x2="0"></line>
            <text dy=".71em" style="text-anchor: middle;" y="9" x="0">K</text>
        </g>
        <g class="tick" style="opacity: 1;" transform="translate(293,0)">
            <line y2="6" x2="0"></line>
            <text dy=".71em" style="text-anchor: middle;" y="9" x="0">L</text>
        </g>
        <g class="tick" style="opacity: 1;" transform="translate(320,0)">
            <line y2="6" x2="0"></line>
            <text dy=".71em" style="text-anchor: middle;" y="9" x="0">M</text>
        </g>
        <g class="tick" style="opacity: 1;" transform="translate(347,0)">
            <line y2="6" x2="0"></line>
            <text dy=".71em" style="text-anchor: middle;" y="9" x="0">N</text>
        </g>
        <g class="tick" style="opacity: 1;" transform="translate(374,0)">
            <line y2="6" x2="0"></line>
            <text dy=".71em" style="text-anchor: middle;" y="9" x="0">O</text>
        </g>
        <g class="tick" style="opacity: 1;" transform="translate(401,0)">
            <line y2="6" x2="0"></line>
            <text dy=".71em" style="text-anchor: middle;" y="9" x="0">P</text>
        </g>
        <g class="tick" style="opacity: 1;" transform="translate(428,0)">
            <line y2="6" x2="0"></line>
            <text dy=".71em" style="text-anchor: middle;" y="9" x="0">Q</text>
        </g>
        <g class="tick" style="opacity: 1;" transform="translate(455,0)">
            <line y2="6" x2="0"></line>
            <text dy=".71em" style="text-anchor: middle;" y="9" x="0">R</text>
        </g>
        <g class="tick" style="opacity: 1;" transform="translate(482,0)">
            <line y2="6" x2="0"></line>
            <text dy=".71em" style="text-anchor: middle;" y="9" x="0">S</text>
        </g>
        <g class="tick" style="opacity: 1;" transform="translate(509,0)">
            <line y2="6" x2="0"></line>
            <text dy=".71em" style="text-anchor: middle;" y="9" x="0">T</text>
        </g>
        <g class="tick" style="opacity: 1;" transform="translate(536,0)">
            <line y2="6" x2="0"></line>
            <text dy=".71em" style="text-anchor: middle;" y="9" x="0">U</text>
        </g>
        <path class="domain" d="M0,6V0H560V6"></path>
    </g>
    <g class="y axis" transform="translate(0, 0)">
        <g class="tick" style="opacity: 1;" transform="translate(0,210)">
            <line x2="-6" y2="0"></line>
            <text dy=".32em" style="text-anchor: end;" x="-9" y="0">0</text>
        </g>
        <g class="tick" style="opacity: 1;" transform="translate(0,193.20000000000002)">
            <line x2="-6" y2="0"></line>
            <text dy=".32em" style="text-anchor: end;" x="-9" y="0">2</text>
        </g>
        <g class="tick" style="opacity: 1;" transform="translate(0,176.4)">
            <line x2="-6" y2="0"></line>
            <text dy=".32em" style="text-anchor: end;" x="-9" y="0">4</text>
        </g>
        <g class="tick" style="opacity: 1;" transform="translate(0,159.6)">
            <line x2="-6" y2="0"></line>
            <text dy=".32em" style="text-anchor: end;" x="-9" y="0">6</text>
        </g>
        <g class="tick" style="opacity: 1;" transform="translate(0,142.79999999999998)">
            <line x2="-6" y2="0"></line>
            <text dy=".32em" style="text-anchor: end;" x="-9" y="0">8</text>
        </g>
        <g class="tick" style="opacity: 1;" transform="translate(0,126)">
            <line x2="-6" y2="0"></line>
            <text dy=".32em" style="text-anchor: end;" x="-9" y="0">10</text>
        </g>
        <g class="tick" style="opacity: 1;" transform="translate(0,109.2)">
            <line x2="-6" y2="0"></line>
            <text dy=".32em" style="text-anchor: end;" x="-9" y="0">12</text>
        </g>
        <g class="tick" style="opacity: 1;" transform="translate(0,92.39999999999999)">
            <line x2="-6" y2="0"></line>
            <text dy=".32em" style="text-anchor: end;" x="-9" y="0">14</text>
        </g>
        <g class="tick" style="opacity: 1;" transform="translate(0,75.6)">
            <line x2="-6" y2="0"></line>
            <text dy=".32em" style="text-anchor: end;" x="-9" y="0">16</text>
        </g>
        <g class="tick" style="opacity: 1;" transform="translate(0,58.800000000000004)">
            <line x2="-6" y2="0"></line>
            <text dy=".32em" style="text-anchor: end;" x="-9" y="0">18</text>
        </g>
        <g class="tick" style="opacity: 1;" transform="translate(0,41.99999999999999)">
            <line x2="-6" y2="0"></line>
            <text dy=".32em" style="text-anchor: end;" x="-9" y="0">20</text>
        </g>
        <g class="tick" style="opacity: 1;" transform="translate(0,25.2)">
            <line x2="-6" y2="0"></line>
            <text dy=".32em" style="text-anchor: end;" x="-9" y="0">22</text>
        </g>
        <g class="tick" style="opacity: 1;" transform="translate(0,8.400000000000007)">
            <line x2="-6" y2="0"></line>
            <text dy=".32em" style="text-anchor: end;" x="-9" y="0">24</text>
        </g>
        <path class="domain" d="M-6,0H0V210H-6"></path>
    </g>
</g>
</svg>